<svg xmlns="http://www.w3.org/2000/svg" version="1.1" xmlns:xlink="http://www.w3.org/1999/xlink" xmlns:svgjs="http://svgjs.dev/svgjs" width="2000" height="237" viewBox="0 0 2000 237"><g transform="matrix(1,0,0,1,-1.2121212121212466,-1.7087906713715455)"><svg viewBox="0 0 396 47" data-background-color="#ffffff" preserveAspectRatio="xMidYMid meet" height="237" width="2000" xmlns="http://www.w3.org/2000/svg" xmlns:xlink="http://www.w3.org/1999/xlink"><g id="tight-bounds" transform="matrix(1,0,0,1,0.2400000000000091,0.3388740993859187)"><svg viewBox="0 0 395.52 46.322251801228134" height="46.322251801228134" width="395.52"><g><svg viewBox="0 0 634.8086254135937 74.3471" height="46.322251801228134" width="395.52"><g><svg viewBox="0 0 634.8086254135937 74.3471" height="74.3471" width="634.8086254135937"><g id="textblocktransform"><svg viewBox="0 0 634.8086254135937 74.3471" height="74.3471" width="634.8086254135937" id="textblock"><g><svg viewBox="0 0 634.8086254135937 74.3471" height="74.3471" width="634.8086254135937"><g><svg><g></g><g></g></svg></g><g><svg><g><svg></svg></g><g></g></svg></g><g id="text-0"><svg viewBox="0 0 634.8086254135937 74.3471" height="74.3471" width="634.8086254135937"><g transform="matrix(1,0,0,1,0,14.198549999999997)"><svg width="410.50000000000006" viewBox="1.75 -35.95 410.46 45.95" height="45.95" data-palette-color="#1e55b3"><path d="M19.75 10L19.75 10Q17.9 10 16.82 8.95 15.75 7.9 15.33 6.25 14.9 4.6 14.9 2.85L14.9 2.85Q14.9 1.4 15.25-1L15.25-1Q15.35-1.6 15.53-2.6 15.7-3.6 15.9-4.6L15.9-4.6Q14.15-2.25 12.13-1.03 10.1 0.2 8.15 0.2L8.15 0.2Q6 0.2 4.58-1.18 3.15-2.55 2.45-4.85 1.75-7.15 1.75-9.8L1.75-9.8Q1.75-12.5 2.45-15.23 3.15-17.95 4.53-20.25 5.9-22.55 7.9-23.95 9.9-25.35 12.5-25.35L12.5-25.35Q14.35-25.35 15.93-24.58 17.5-23.8 18.55-22.2L18.55-22.2Q18.55-22.5 18.57-22.8 18.6-23.1 18.6-23.25L18.6-23.25Q18.6-24.25 19.93-24.83 21.25-25.4 22.85-25.4L22.85-25.4Q24.25-25.4 25.5-24.85 26.75-24.3 27.2-23L27.2-23 27.3-22.7Q26.9-21.8 26.48-19.95 26.05-18.1 25.63-15.7 25.2-13.3 24.8-10.73 24.4-8.15 24.13-5.7 23.85-3.25 23.68-1.35 23.5 0.55 23.5 1.6L23.5 1.6Q23.5 3.2 23.9 3.75 24.3 4.3 24.8 4.3L24.8 4.3Q25.3 4.3 25.8 4 26.3 3.7 26.65 3.3L26.65 3.3 27.05 3.5Q27.05 5.2 25.95 6.7 24.85 8.2 23.18 9.1 21.5 10 19.75 10ZM12.1-5.2L12.1-5.2Q13.5-5.2 15.13-7.85 16.75-10.5 17.7-15.2L17.7-15.2Q17.9-16.15 17.98-16.68 18.05-17.2 18.1-17.6L18.1-17.6Q17.65-18.9 16.8-19.6 15.95-20.3 14.95-20.3L14.95-20.3Q13.75-20.3 12.8-19.38 11.85-18.45 11.2-16.98 10.55-15.5 10.2-13.75 9.85-12 9.85-10.35L9.85-10.35Q9.85-8.25 10.43-6.73 11-5.2 12.1-5.2ZM35.95 0.2L35.95 0.2Q33.7 0.2 32.17-1.65 30.65-3.5 30.65-6.6L30.65-6.6Q30.65-8.3 31.05-10.25 31.45-12.2 31.85-13.95L31.85-13.95Q32.2-15.25 32.42-16.38 32.65-17.5 32.65-18.2L32.65-18.2Q32.65-19.1 32.27-19.5 31.9-19.9 31.4-19.9L31.4-19.9Q30.9-19.9 30.4-19.58 29.9-19.25 29.6-18.6L29.6-18.6 29.2-18.75Q29.2-20.8 30.2-22.25 31.2-23.7 32.75-24.45 34.3-25.2 35.9-25.2L35.9-25.2Q37.2-25.2 38.4-24.68 39.6-24.15 40.37-23.05 41.15-21.95 41.15-20.3L41.15-20.3Q41.15-19.3 40.87-17.9 40.6-16.5 40.25-15L40.25-15Q39.9-13.45 39.57-11.88 39.25-10.3 39.25-9.1L39.25-9.1Q39.25-8 39.6-7.3 39.95-6.6 40.65-6.6L40.65-6.6Q41.95-6.6 43.57-9 45.2-11.4 46.2-15.45L46.2-15.45Q46.4-16.25 46.55-17.15 46.7-18.05 46.7-19L46.7-19Q46.7-19.75 46.6-20.53 46.5-21.3 46.3-22.1L46.3-22.1 46.3-22.45Q47.1-23.8 48.37-24.5 49.65-25.2 50.95-25.2L50.95-25.2Q52.7-25.2 54.1-24 55.5-22.8 55.5-20.5L55.5-20.5Q55.5-19.15 55-17.38 54.5-15.6 53.9-13.7L53.9-13.7Q53.3-11.85 52.8-10.05 52.3-8.25 52.3-6.85L52.3-6.85Q52.3-4.8 53.75-4.8L53.75-4.8Q54.15-4.8 54.72-5.03 55.3-5.25 55.8-5.95L55.8-5.95 56.15-5.85Q56.15-4.05 55.17-2.68 54.2-1.3 52.7-0.55 51.2 0.2 49.6 0.2L49.6 0.2Q47.55 0.2 45.92-1.3 44.3-2.8 44.3-6.2L44.3-6.2 44.3-6.3Q42.25-2.8 40.05-1.3 37.85 0.2 35.95 0.2ZM68.15-26.75L68.15-26.75Q66.15-26.75 64.87-27.98 63.6-29.2 63.6-31.05L63.6-31.05Q63.6-33.05 65.09-34.5 66.59-35.95 68.75-35.95L68.75-35.95Q70.75-35.95 72.02-34.7 73.3-33.45 73.3-31.6L73.3-31.6Q73.3-29.6 71.8-28.18 70.3-26.75 68.15-26.75ZM64.65 0.2L64.65 0.2Q62.7 0.2 61.15-1.18 59.6-2.55 59.6-5.6L59.6-5.6Q59.6-7.35 60.07-8.88 60.55-10.4 61.17-11.85 61.8-13.3 62.27-14.68 62.75-16.05 62.75-17.4L62.75-17.4Q62.75-18.6 62.35-19.13 61.95-19.65 61.4-19.65L61.4-19.65Q60.55-19.65 59.75-18.55L59.75-18.55 59.4-18.75Q59.6-20.75 60.67-22.18 61.75-23.6 63.32-24.4 64.9-25.2 66.45-25.2L66.45-25.2Q68.34-25.2 69.75-23.98 71.15-22.75 71.15-20L71.15-20Q71.15-18.35 70.67-16.53 70.2-14.7 69.57-12.9 68.95-11.1 68.47-9.55 68-8 68-6.9L68-6.9Q68-5.95 68.37-5.55 68.75-5.15 69.2-5.15L69.2-5.15Q69.65-5.15 70.07-5.43 70.5-5.7 70.7-6.05L70.7-6.05 71.05-5.95Q71.05-4.1 70.07-2.73 69.09-1.35 67.65-0.58 66.2 0.2 64.65 0.2ZM84.64 0.35L84.64 0.35Q81.34 0.35 79.07-1.15 76.79-2.65 75.64-5.08 74.49-7.5 74.49-10.3L74.49-10.3Q74.49-12.95 75.52-15.6 76.54-18.25 78.54-20.48 80.54-22.7 83.42-24.03 86.29-25.35 90.04-25.35L90.04-25.35Q93.74-25.35 95.54-23.88 97.34-22.4 97.34-20.65L97.34-20.65Q97.34-18.8 95.49-17.25 93.64-15.7 90.09-15.7L90.09-15.7Q90.29-16.45 90.42-17.23 90.54-18 90.54-18.7L90.54-18.7Q90.54-19.75 90.09-20.48 89.64-21.2 88.49-21.2L88.49-21.2Q87.44-21.2 86.27-20.25 85.09-19.3 84.27-17.45 83.44-15.6 83.44-12.9L83.44-12.9Q83.44-10.25 84.32-8.6 85.19-6.95 86.59-6.23 87.99-5.5 89.54-5.5L89.54-5.5Q91.59-5.5 93.49-6.58 95.39-7.65 96.24-9.55L96.24-9.55 96.74-9.35Q96.74-6.75 95.57-4.93 94.39-3.1 92.54-1.93 90.69-0.75 88.59-0.2 86.49 0.35 84.64 0.35ZM117.94 0.25L117.94 0.25Q116.29 0.25 114.84-0.53 113.39-1.3 112.49-2.8 111.59-4.3 111.59-6.4L111.59-6.4Q111.59-8.55 112.64-11.25L112.64-11.25Q113.44-11.65 114.54-12.5 115.64-13.35 116.49-14.43 117.34-15.5 117.34-16.55L117.34-16.55Q117.34-17.5 116.62-18.05 115.89-18.6 114.84-18.6L114.84-18.6Q113.54-18.6 112.39-17.8 111.24-17 110.37-15.73 109.49-14.45 109.02-12.98 108.54-11.5 108.54-10.15L108.54-10.15Q108.54-8.85 108.87-7.73 109.19-6.6 109.19-5.15L109.19-5.15Q109.19-2.9 107.99-1.35 106.79 0.2 104.44 0.2L104.44 0.2Q102.29 0.2 100.99-1.25 99.69-2.7 99.69-5.2L99.69-5.2Q99.69-6.5 100.02-8.65 100.34-10.8 100.84-13.4 101.34-16 101.82-18.78 102.29-21.55 102.62-24.13 102.94-26.7 102.94-28.75L102.94-28.75Q102.94-29.85 102.82-30.78 102.69-31.7 102.29-32.25L102.29-32.25 102.29-32.55Q103.39-33.8 104.69-34.4 105.99-35 107.24-35L107.24-35Q109.14-35 110.49-33.65 111.84-32.3 111.84-29.65L111.84-29.65Q111.84-28.25 111.47-26.25 111.09-24.25 110.57-22.05 110.04-19.85 109.49-17.85L109.49-17.85Q110.59-19.45 111.99-21.15 113.39-22.85 115.14-24.03 116.89-25.2 119.09-25.2L119.09-25.2Q121.64-25.2 123.09-23.58 124.54-21.95 124.54-19.7L124.54-19.7Q124.54-17.45 122.92-14.9 121.29-12.35 117.49-10.6L117.49-10.6Q118.14-9.15 119.29-8 120.44-6.85 121.82-6.23 123.19-5.6 124.39-5.6L124.39-5.6Q124.99-5.6 125.44-5.8L125.44-5.8 125.74-5.5Q124.49-2.6 122.32-1.18 120.14 0.25 117.94 0.25ZM148.39 10L148.39 10Q145.94 10 144.34 8.55 142.74 7.1 142.74 4.45L142.74 4.45Q142.74 1.6 144.74-2.25L144.74-2.25Q144.39-2.15 144.04-2.1 143.69-2.05 143.34-2.05L143.34-2.05Q140.44-2.05 138.46-4.58 136.49-7.1 136.49-11.6L136.49-11.6Q136.49-15.65 138.06-18.75 139.64-21.85 142.09-23.6 144.54-25.35 147.19-25.35L147.19-25.35Q149.04-25.35 150.54-24.43 152.04-23.5 152.99-21.45L152.99-21.45Q153.04-21.95 153.04-22.35 153.04-22.75 153.04-23.1L153.04-23.1Q153.04-23.95 154.34-24.5 155.64-25.05 157.24-25.05L157.24-25.05Q158.69-25.05 159.94-24.5 161.19-23.95 161.59-22.65L161.59-22.65 161.69-22.35Q161.24-21.95 160.91-19.75 160.59-17.55 160.14-13.65L160.14-13.65Q159.84-11.2 159.39-8.08 158.94-4.95 158.16-1.78 157.39 1.4 156.14 4.08 154.89 6.75 152.99 8.38 151.09 10 148.39 10ZM146.74-7.8L146.74-7.8Q148.19-7.8 149.96-10.18 151.74-12.55 152.79-17L152.79-17Q151.89-18.95 150.96-19.78 150.04-20.6 149.09-20.6L149.09-20.6Q147.84-20.6 146.74-19.35 145.64-18.1 144.96-16.18 144.29-14.25 144.29-12.2L144.29-12.2Q144.29-10.1 144.99-8.95 145.69-7.8 146.74-7.8ZM146.14 4.25L146.14 4.25Q147.84 4.25 149.61 0.93 151.39-2.4 152.09-8.45L152.09-8.45Q148.29-3.3 146.81-0.53 145.34 2.25 145.34 3.4L145.34 3.4Q145.34 4.25 146.14 4.25ZM174.98 0.35L174.98 0.35Q171.23 0.35 168.78-1.15 166.33-2.65 165.16-5.13 163.98-7.6 163.98-10.4L163.98-10.4Q163.98-13.05 164.96-15.7 165.93-18.35 167.81-20.53 169.68-22.7 172.38-24.03 175.08-25.35 178.58-25.35L178.58-25.35Q182.33-25.35 184.76-23.83 187.18-22.3 188.36-19.8 189.53-17.3 189.53-14.45L189.53-14.45Q189.53-11.85 188.58-9.22 187.63-6.6 185.76-4.42 183.88-2.25 181.18-0.95 178.48 0.35 174.98 0.35ZM176.33-3.9L176.33-3.9Q177.68-3.9 178.58-5.3 179.48-6.7 179.93-8.88 180.38-11.05 180.38-13.3L180.38-13.3Q180.38-15.3 180.01-17.07 179.63-18.85 178.88-19.98 178.13-21.1 176.93-21.1L176.93-21.1Q175.63-21.1 174.71-19.7 173.78-18.3 173.33-16.15 172.88-14 172.88-11.7L172.88-11.7Q172.88-9.7 173.26-7.93 173.63-6.15 174.38-5.03 175.13-3.9 176.33-3.9ZM199.88 0.2L199.88 0.2Q196.98 0.2 195.28-1.33 193.58-2.85 193.58-6.05L193.58-6.05Q193.58-7.9 194.06-10 194.53-12.1 194.98-13.75L194.98-13.75Q195.43-15.35 195.71-16.55 195.98-17.75 195.98-18.4L195.98-18.4Q195.98-19.2 195.63-19.55 195.28-19.9 194.78-19.9L194.78-19.9Q193.58-19.9 192.78-18.75L192.78-18.75 192.58-18.95Q192.63-20.65 193.68-22.08 194.73-23.5 196.38-24.35 198.03-25.2 199.73-25.2L199.73-25.2Q201.63-25.2 202.98-24.08 204.33-22.95 204.23-20.55L204.23-20.55Q204.18-19.5 203.86-17.9 203.53-16.3 202.98-14.1L202.98-14.1Q202.63-12.7 202.25-10.93 201.88-9.15 201.88-7.7L201.88-7.7Q201.88-6.6 202.23-5.95 202.58-5.3 203.38-5.3L203.38-5.3Q204.43-5.3 205.71-6.48 206.98-7.65 207.93-10.33 208.88-13 209.03-17.45L209.03-17.45Q209.18-20.85 208.58-22.4L208.58-22.4 208.58-22.65Q209.03-23.35 209.96-24 210.88-24.65 212.03-25.08 213.18-25.5 214.18-25.5L214.18-25.5Q215.78-25.5 216.91-23.95 218.03-22.4 217.88-18.55L217.88-18.55Q217.78-14.85 216.56-11.85 215.33-8.85 213.38-6.6 211.43-4.35 209.11-2.85 206.78-1.35 204.38-0.58 201.98 0.2 199.88 0.2ZM230.93 0.35L230.93 0.35Q227.28 0.35 224.88-1.13 222.48-2.6 221.28-5.03 220.08-7.45 220.08-10.25L220.08-10.25Q220.08-12.9 221.1-15.58 222.13-18.25 224.1-20.45 226.08-22.65 228.9-24 231.73-25.35 235.28-25.35L235.28-25.35Q239.68-25.35 241.7-23.38 243.73-21.4 243.73-18.6L243.73-18.6Q243.73-16.2 242.45-14.18 241.18-12.15 239.08-10.93 236.98-9.7 234.48-9.7L234.48-9.7Q233.18-9.7 231.83-10.1 230.48-10.5 229.18-11.35L229.18-11.35Q229.43-8.25 230.98-6.85 232.53-5.45 234.68-5.45L234.68-5.45Q236.18-5.45 237.68-6.03 239.18-6.6 240.45-7.53 241.73-8.45 242.43-9.5L242.43-9.5 242.78-9.25Q242.78-6.65 241.7-4.83 240.63-3 238.88-1.85 237.13-0.7 235.05-0.18 232.98 0.35 230.93 0.35ZM232.08-13.15L232.08-13.15Q233.68-13.15 234.68-14.08 235.68-15 236.18-16.25 236.68-17.5 236.68-18.45L236.68-18.45Q236.68-19.6 236.03-20.38 235.38-21.15 234.23-21.15L234.23-21.15Q233.33-21.15 232.25-20.5 231.18-19.85 230.33-18.28 229.48-16.7 229.23-13.9L229.23-13.9Q230.83-13.15 232.08-13.15ZM252.08 0.2L252.08 0.2Q250.28 0.2 248.88-1.28 247.48-2.75 247.48-5.45L247.48-5.45Q247.48-6.75 247.78-8.4 248.08-10.05 248.48-11.78 248.88-13.5 249.18-15.03 249.48-16.55 249.48-17.55L249.48-17.55Q249.48-18.6 249.1-19.23 248.73-19.85 248.13-19.85L248.13-19.85Q247.18-19.85 246.18-18.55L246.18-18.55 245.88-18.75Q245.83-19.55 246.23-20.65 246.63-21.75 247.48-22.78 248.33-23.8 249.65-24.5 250.98-25.2 252.78-25.2L252.78-25.2Q255.43-25.2 256.63-23.68 257.83-22.15 257.83-20L257.83-20Q257.83-19.65 257.8-19.28 257.78-18.9 257.73-18.55L257.73-18.55Q259.53-21.8 261.5-23.53 263.48-25.25 265.18-25.25L265.18-25.25Q266.78-25.25 267.53-24 268.28-22.75 268.28-21L268.28-21Q268.28-19.4 267.65-17.75 267.03-16.1 265.8-15.03 264.58-13.95 262.83-14L262.83-14 262.63-14.1Q262.58-15.4 261.78-16.15 260.98-16.9 259.98-16.9L259.98-16.9Q258.63-16.9 257.45-15.55 256.28-14.2 256.28-11.65L256.28-11.65Q256.28-10.1 256.63-8.3 256.98-6.5 256.98-5.25L256.98-5.25Q256.98-3.75 256.28-2.5 255.58-1.25 254.48-0.53 253.38 0.2 252.08 0.2ZM275.62 0.15L275.62 0.15Q273.77 0.15 272.27-1.33 270.77-2.8 270.77-5.45L270.77-5.45Q270.77-6.75 271.12-8.4 271.47-10.05 271.9-11.75 272.32-13.45 272.67-14.95 273.02-16.45 273.02-17.4L273.02-17.4Q273.02-18.4 272.62-18.98 272.22-19.55 271.57-19.55L271.57-19.55Q270.72-19.55 269.72-18.55L269.72-18.55 269.42-18.75Q269.37-19.55 269.77-20.65 270.17-21.75 271-22.78 271.82-23.8 273.12-24.5 274.42-25.2 276.22-25.2L276.22-25.2Q278.87-25.2 280.15-23.68 281.42-22.15 281.42-19.95L281.42-19.95Q281.42-19.15 281.27-18.4L281.27-18.4Q282.32-19.95 283.87-21.53 285.42-23.1 287.3-24.15 289.17-25.2 291.17-25.2L291.17-25.2Q293.52-25.2 294.37-23.7 295.22-22.2 295.22-19.95L295.22-19.95Q295.22-17.85 294.77-15.45 294.32-13.05 293.87-10.83 293.42-8.6 293.42-7.1L293.42-7.1Q293.42-5.1 294.57-5.1L294.57-5.1Q295.17-5.1 295.62-5.48 296.07-5.85 296.22-6.2L296.22-6.2 296.57-6.05Q296.57-4.2 295.55-2.8 294.52-1.4 292.97-0.63 291.42 0.15 289.82 0.15L289.82 0.15Q287.87 0.15 286.37-1.2 284.87-2.55 284.87-5.6L284.87-5.6Q284.87-7.4 285.35-9.5 285.82-11.6 286.27-13.55 286.72-15.5 286.72-16.75L286.72-16.75Q286.72-17.5 286.45-17.93 286.17-18.35 285.47-18.35L285.47-18.35Q284.32-18.35 282.95-17.3 281.57-16.25 280.6-14.5 279.62-12.75 279.62-10.65L279.62-10.65Q279.62-9.3 279.95-8.05 280.27-6.8 280.27-5.35L280.27-5.35Q280.27-2.65 278.87-1.25 277.47 0.15 275.62 0.15ZM304.62 0.2L304.62 0.2Q302.82 0.2 301.4-1.28 299.97-2.75 299.97-5.35L299.97-5.35Q299.97-6.65 300.32-8.33 300.67-10 301.1-11.75 301.52-13.5 301.87-15.05 302.22-16.6 302.22-17.65L302.22-17.65Q302.22-18.5 301.82-19.03 301.42-19.55 300.77-19.55L300.77-19.55Q299.92-19.55 298.92-18.55L298.92-18.55 298.62-18.75Q298.57-19.55 298.97-20.65 299.37-21.75 300.27-22.78 301.17-23.8 302.62-24.5 304.07-25.2 306.07-25.2L306.07-25.2Q308.32-25.2 309.45-23.63 310.57-22.05 310.57-19.85L310.57-19.85Q310.57-19.6 310.57-19.33 310.57-19.05 310.52-18.8L310.52-18.8Q311.47-20.35 312.75-21.8 314.02-23.25 315.65-24.23 317.27-25.2 319.17-25.2L319.17-25.2Q321.62-25.2 322.57-23.63 323.52-22.05 323.52-20.05L323.52-20.05Q323.52-19.65 323.5-19.28 323.47-18.9 323.42-18.55L323.42-18.55Q324.47-20.1 325.75-21.63 327.02-23.15 328.67-24.18 330.32-25.2 332.47-25.2L332.47-25.2Q335.12-25.2 336.1-23.65 337.07-22.1 337.07-20L337.07-20Q337.07-18.15 336.62-15.78 336.17-13.4 335.72-11.1 335.27-8.8 335.27-7.2L335.27-7.2Q335.27-6.25 335.55-5.65 335.82-5.05 336.47-5.05L336.47-5.05Q337.02-5.05 337.5-5.38 337.97-5.7 338.17-6.15L338.17-6.15 338.57-6Q338.57-4.15 337.52-2.75 336.47-1.35 334.87-0.58 333.27 0.2 331.67 0.2L331.67 0.2Q329.72 0.2 328.25-1.1 326.77-2.4 326.77-5.4L326.77-5.4Q326.77-7.25 327.25-9.4 327.72-11.55 328.2-13.58 328.67-15.6 328.67-16.9L328.67-16.9Q328.67-18.75 327.37-18.75L327.37-18.75Q326.42-18.75 325.5-17.98 324.57-17.2 323.85-15.93 323.12-14.65 322.67-13.25 322.22-11.85 322.22-10.55L322.22-10.55Q322.22-9.35 322.5-7.93 322.77-6.5 322.77-5.2L322.77-5.2Q322.77-2.6 321.32-1.2 319.87 0.2 317.92 0.2L317.92 0.2Q316.12 0.2 314.7-1 313.27-2.2 313.27-4.6L313.27-4.6Q313.27-5.7 313.57-7.28 313.87-8.85 314.25-10.58 314.62-12.3 314.92-13.9 315.22-15.5 315.22-16.7L315.22-16.7Q315.22-17.65 314.95-18.2 314.67-18.75 313.87-18.75L313.87-18.75Q312.72-18.75 311.67-17.6 310.62-16.45 309.87-14.83 309.12-13.2 308.87-11.7L308.87-11.7Q308.82-11.35 308.8-11.15 308.77-10.95 308.77-10.95L308.77-10.95Q308.77-9.4 309.12-8.13 309.47-6.85 309.47-5.5L309.47-5.5Q309.47-3.05 308-1.43 306.52 0.2 304.62 0.2ZM351.72 0.35L351.72 0.35Q348.07 0.35 345.67-1.13 343.27-2.6 342.07-5.03 340.87-7.45 340.87-10.25L340.87-10.25Q340.87-12.9 341.89-15.58 342.92-18.25 344.89-20.45 346.87-22.65 349.69-24 352.52-25.35 356.07-25.35L356.07-25.35Q360.47-25.35 362.49-23.38 364.52-21.4 364.52-18.6L364.52-18.6Q364.52-16.2 363.24-14.18 361.97-12.15 359.87-10.93 357.77-9.7 355.27-9.7L355.27-9.7Q353.97-9.7 352.62-10.1 351.27-10.5 349.97-11.35L349.97-11.35Q350.22-8.25 351.77-6.85 353.32-5.45 355.47-5.45L355.47-5.45Q356.97-5.45 358.47-6.03 359.97-6.6 361.24-7.53 362.52-8.45 363.22-9.5L363.22-9.5 363.57-9.25Q363.57-6.65 362.49-4.83 361.42-3 359.67-1.85 357.92-0.7 355.84-0.18 353.77 0.35 351.72 0.35ZM352.87-13.15L352.87-13.15Q354.47-13.15 355.47-14.08 356.47-15 356.97-16.25 357.47-17.5 357.47-18.45L357.47-18.45Q357.47-19.6 356.82-20.38 356.17-21.15 355.02-21.15L355.02-21.15Q354.12-21.15 353.04-20.5 351.97-19.85 351.12-18.28 350.27-16.7 350.02-13.9L350.02-13.9Q351.62-13.15 352.87-13.15ZM372.87 0.15L372.87 0.15Q371.02 0.15 369.52-1.33 368.02-2.8 368.02-5.45L368.02-5.45Q368.02-6.75 368.37-8.4 368.72-10.05 369.14-11.75 369.57-13.45 369.92-14.95 370.27-16.45 370.27-17.4L370.27-17.4Q370.27-18.4 369.87-18.98 369.47-19.55 368.82-19.55L368.82-19.55Q367.97-19.55 366.97-18.55L366.97-18.55 366.67-18.75Q366.62-19.55 367.02-20.65 367.42-21.75 368.24-22.78 369.07-23.8 370.37-24.5 371.67-25.2 373.47-25.2L373.47-25.2Q376.12-25.2 377.39-23.68 378.67-22.15 378.67-19.95L378.67-19.95Q378.67-19.15 378.52-18.4L378.52-18.4Q379.57-19.95 381.12-21.53 382.67-23.1 384.54-24.15 386.42-25.2 388.42-25.2L388.42-25.2Q390.77-25.2 391.62-23.7 392.47-22.2 392.47-19.95L392.47-19.95Q392.47-17.85 392.02-15.45 391.57-13.05 391.12-10.83 390.67-8.6 390.67-7.1L390.67-7.1Q390.67-5.1 391.82-5.1L391.82-5.1Q392.42-5.1 392.87-5.48 393.32-5.85 393.47-6.2L393.47-6.2 393.82-6.05Q393.82-4.2 392.79-2.8 391.77-1.4 390.22-0.63 388.67 0.15 387.07 0.15L387.07 0.15Q385.12 0.15 383.62-1.2 382.12-2.55 382.12-5.6L382.12-5.6Q382.12-7.4 382.59-9.5 383.07-11.6 383.52-13.55 383.97-15.5 383.97-16.75L383.97-16.75Q383.97-17.5 383.69-17.93 383.42-18.35 382.72-18.35L382.72-18.35Q381.57-18.35 380.19-17.3 378.82-16.25 377.84-14.5 376.87-12.75 376.87-10.65L376.87-10.65Q376.87-9.3 377.19-8.05 377.52-6.8 377.52-5.35L377.52-5.35Q377.52-2.65 376.12-1.25 374.72 0.15 372.87 0.15ZM403.56 0.2L403.56 0.2Q401.96 0.2 400.54-0.53 399.11-1.25 398.24-2.8 397.36-4.35 397.36-6.75L397.36-6.75Q397.36-8.05 397.61-10.15 397.86-12.25 398.29-14.75 398.71-17.25 399.16-19.75L399.16-19.75Q398.16-19.7 397.24-19.55 396.31-19.4 395.41-19.2L395.41-19.2 395.31-19.55Q396.31-20.75 397.41-21.6 398.51-22.45 399.71-23L399.71-23Q400.36-26.3 400.81-28.73 401.26-31.15 401.26-31.6L401.26-31.6Q401.26-32.45 402.59-33 403.91-33.55 405.56-33.55L405.56-33.55Q407.01-33.55 408.29-33 409.56-32.45 410.01-31.15L410.01-31.15Q409.71-30.85 409.16-28.93 408.61-27 408.01-24.25L408.01-24.25Q408.96-24.2 409.96-24.15 410.96-24.1 412.01-24L412.01-24Q412.11-23.7 412.16-23.35 412.21-23 412.21-22.6L412.21-22.6Q412.21-21.85 411.99-20.98 411.76-20.1 411.46-19.4L411.46-19.4Q410.26-19.5 409.21-19.63 408.16-19.75 407.16-19.8L407.16-19.8Q406.76-17.65 406.44-15.5 406.11-13.35 405.94-11.6 405.76-9.85 405.76-8.85L405.76-8.85Q405.76-6.75 406.54-6.05 407.31-5.35 408.41-5.35L408.41-5.35Q409.41-5.35 410.21-5.75 411.01-6.15 411.36-6.7L411.36-6.7 411.86-6.55Q411.56-4.5 410.26-2.98 408.96-1.45 407.16-0.63 405.36 0.2 403.56 0.2Z" opacity="1" transform="matrix(1,0,0,1,0,0)" fill="#1e55b3" class="undefined-tk-0"></path></svg></g><g><svg xmlns="http://www.w3.org/2000/svg" xmlns:xlink="http://www.w3.org/1999/xlink" version="1.1" x="428.0529000000001" y="0" viewBox="18.602 2.304 58.798 88.946" enable-background="new 0 0 96 96" xml:space="preserve" height="74.3471" width="49.14735666359365" class="icon-dxe-0" data-fill-palette-color="accent" id="dxe-0"><path d="M18.602 11.649V27.542L33.549 19.596zM20.102 14.145L30.354 19.595 20.102 25.045z" fill="#ff585f" data-fill-palette-color="accent"></path><polygon points="28.165,25.631 28.869,26.956 42.715,19.595 28.869,12.235 28.165,13.559 39.52,19.595 " fill="#ff585f" data-fill-palette-color="accent"></polygon><path d="M28.643 75.536L24.376 79.803 30.049 85.474 34.31 81.208A23.7 23.7 0 0 0 43.991 85.214V91.25H52.01V85.214A23.7 23.7 0 0 0 61.686 81.208L65.952 85.474 71.625 79.802 67.362 75.537A23.7 23.7 0 0 0 71.364 65.859H77.4V57.838H71.364A23.7 23.7 0 0 0 67.362 48.161L71.626 43.896 66.571 38.841 73.818 30.084 56.45 23.697 58.899 2.304 37.31 36.695 43.992 36.35V38.485A23.7 23.7 0 0 0 34.311 42.49L30.05 38.223 24.376 43.896 28.643 48.16A23.7 23.7 0 0 0 24.633 57.837H18.602V65.858H24.633A23.7 23.7 0 0 0 28.643 75.536M56.658 8.696L54.826 24.698 71.31 30.761 61.633 42.455 60.668 43.622 55.796 49.509 54.831 50.675 47.514 59.517 52.073 49.391 52.689 48.021 55.816 41.074 56.434 39.702 58.967 34.076 52.01 34.435 50.51 34.513 45.491 34.772 43.991 34.849 40.114 35.049zM52.01 35.937L56.591 35.701 55.011 39.211A23.5 23.5 0 0 0 52.011 38.486V35.937zM20.102 59.338H25.926L26.018 58.693A22.2 22.2 0 0 1 30.227 48.534L30.618 48.013 26.498 43.896 30.049 40.345 34.163 44.465 34.684 44.074A22.16 22.16 0 0 1 44.847 39.869L45.492 39.778V36.272L50.511 36.013V39.777L51.156 39.869C52.253 40.025 53.333 40.273 54.39 40.59L51.231 47.605A14.6 14.6 0 0 0 48.001 47.233C39.943 47.233 33.387 53.789 33.387 61.847 33.387 69.907 39.943 76.463 48.001 76.463V74.963C40.77 74.963 34.887 69.079 34.887 61.847S40.77 48.733 48.001 48.733C48.893 48.733 49.763 48.824 50.605 48.995L41.583 69.034 56.069 51.531C59.135 53.933 61.116 57.66 61.116 61.848 61.116 66.837 58.252 71.373 53.862 73.573L54.921 69.469 53.469 69.094 51.819 75.489 57.856 76.456 58.093 74.975 55.27 74.523C59.743 71.949 62.616 67.126 62.616 61.85 62.616 57.198 60.423 53.056 57.025 50.377L62.317 43.982 65.953 40.345 69.505 43.897 65.389 48.014 65.779 48.534A22.2 22.2 0 0 1 69.98 58.693L70.071 59.338H75.9V64.359H70.07L69.979 65.004A22.16 22.16 0 0 1 65.778 75.164L65.388 75.684 69.504 79.802 65.952 83.353 61.833 79.234 61.312 79.624A22.16 22.16 0 0 1 51.154 83.829L50.509 83.921V89.75H45.49V83.921L44.845 83.83A22.2 22.2 0 0 1 34.681 79.625L34.16 79.235 30.046 83.353 26.495 79.804 30.615 75.684 30.224 75.163A22.2 22.2 0 0 1 26.015 65.004L25.923 64.36H20.099V59.338z" fill="#ff585f" data-fill-palette-color="accent"></path></svg></g><g transform="matrix(1,0,0,1,494.75315666359376,14.19855)"><svg width="140.05546875" viewBox="1.1444444444444442 -35.95 140.04555555555555 36.300000000000004" height="36.300000000000004" data-palette-color="#1e55b3"><path d="M7.35 0.15L7.35 0.15Q5.5 0.15 4-1.33 2.5-2.8 2.5-5.45L2.5-5.45Q2.5-6.75 2.85-8.4 3.2-10.05 3.63-11.75 4.05-13.45 4.4-14.95 4.75-16.45 4.75-17.4L4.75-17.4Q4.75-18.4 4.35-18.98 3.95-19.55 3.3-19.55L3.3-19.55Q2.45-19.55 1.45-18.55L1.45-18.55 1.15-18.75Q1.1-19.55 1.5-20.65 1.9-21.75 2.73-22.78 3.55-23.8 4.85-24.5 6.15-25.2 7.95-25.2L7.95-25.2Q10.6-25.2 11.88-23.68 13.15-22.15 13.15-19.95L13.15-19.95Q13.15-19.15 13-18.4L13-18.4Q14.05-19.95 15.6-21.53 17.15-23.1 19.03-24.15 20.9-25.2 22.9-25.2L22.9-25.2Q25.25-25.2 26.1-23.7 26.95-22.2 26.95-19.95L26.95-19.95Q26.95-17.85 26.5-15.45 26.05-13.05 25.6-10.83 25.15-8.6 25.15-7.1L25.15-7.1Q25.15-5.1 26.3-5.1L26.3-5.1Q26.9-5.1 27.35-5.48 27.8-5.85 27.95-6.2L27.95-6.2 28.3-6.05Q28.3-4.2 27.28-2.8 26.25-1.4 24.7-0.63 23.15 0.15 21.55 0.15L21.55 0.15Q19.6 0.15 18.1-1.2 16.6-2.55 16.6-5.6L16.6-5.6Q16.6-7.4 17.07-9.5 17.55-11.6 18-13.55 18.45-15.5 18.45-16.75L18.45-16.75Q18.45-17.5 18.18-17.93 17.9-18.35 17.2-18.35L17.2-18.35Q16.05-18.35 14.68-17.3 13.3-16.25 12.33-14.5 11.35-12.75 11.35-10.65L11.35-10.65Q11.35-9.3 11.68-8.05 12-6.8 12-5.35L12-5.35Q12-2.65 10.6-1.25 9.2 0.15 7.35 0.15ZM41.85 0.35L41.85 0.35Q38.1 0.35 35.65-1.15 33.2-2.65 32.02-5.13 30.85-7.6 30.85-10.4L30.85-10.4Q30.85-13.05 31.82-15.7 32.8-18.35 34.67-20.53 36.55-22.7 39.25-24.03 41.95-25.35 45.45-25.35L45.45-25.35Q49.2-25.35 51.62-23.83 54.05-22.3 55.22-19.8 56.4-17.3 56.4-14.45L56.4-14.45Q56.4-11.85 55.45-9.22 54.5-6.6 52.62-4.42 50.75-2.25 48.05-0.95 45.35 0.35 41.85 0.35ZM43.2-3.9L43.2-3.9Q44.55-3.9 45.45-5.3 46.35-6.7 46.8-8.88 47.25-11.05 47.25-13.3L47.25-13.3Q47.25-15.3 46.87-17.07 46.5-18.85 45.75-19.98 45-21.1 43.8-21.1L43.8-21.1Q42.5-21.1 41.57-19.7 40.65-18.3 40.2-16.15 39.75-14 39.75-11.7L39.75-11.7Q39.75-9.7 40.12-7.93 40.5-6.15 41.25-5.03 42-3.9 43.2-3.9ZM66.39 0.2L66.39 0.2Q64.8 0.2 63.37-0.53 61.95-1.25 61.07-2.8 60.2-4.35 60.2-6.75L60.2-6.75Q60.2-8.05 60.45-10.15 60.7-12.25 61.12-14.75 61.55-17.25 62-19.75L62-19.75Q61-19.7 60.07-19.55 59.15-19.4 58.25-19.2L58.25-19.2 58.15-19.55Q59.15-20.75 60.25-21.6 61.34-22.45 62.55-23L62.55-23Q63.2-26.3 63.65-28.73 64.09-31.15 64.09-31.6L64.09-31.6Q64.09-32.45 65.42-33 66.75-33.55 68.4-33.55L68.4-33.55Q69.84-33.55 71.12-33 72.4-32.45 72.84-31.15L72.84-31.15Q72.55-30.85 72-28.93 71.45-27 70.84-24.25L70.84-24.25Q71.8-24.2 72.8-24.15 73.8-24.1 74.84-24L74.84-24Q74.95-23.7 75-23.35 75.05-23 75.05-22.6L75.05-22.6Q75.05-21.85 74.82-20.98 74.59-20.1 74.3-19.4L74.3-19.4Q73.09-19.5 72.05-19.63 71-19.75 70-19.8L70-19.8Q69.59-17.65 69.27-15.5 68.95-13.35 68.77-11.6 68.59-9.85 68.59-8.85L68.59-8.85Q68.59-6.75 69.37-6.05 70.15-5.35 71.25-5.35L71.25-5.35Q72.25-5.35 73.05-5.75 73.84-6.15 74.2-6.7L74.2-6.7 74.7-6.55Q74.4-4.5 73.09-2.98 71.8-1.45 70-0.63 68.2 0.2 66.39 0.2ZM86.34-26.75L86.34-26.75Q84.34-26.75 83.07-27.98 81.79-29.2 81.79-31.05L81.79-31.05Q81.79-33.05 83.29-34.5 84.79-35.95 86.94-35.95L86.94-35.95Q88.94-35.95 90.22-34.7 91.49-33.45 91.49-31.6L91.49-31.6Q91.49-29.6 89.99-28.18 88.49-26.75 86.34-26.75ZM82.84 0.2L82.84 0.2Q80.89 0.2 79.34-1.18 77.79-2.55 77.79-5.6L77.79-5.6Q77.79-7.35 78.27-8.88 78.74-10.4 79.37-11.85 79.99-13.3 80.47-14.68 80.94-16.05 80.94-17.4L80.94-17.4Q80.94-18.6 80.54-19.13 80.14-19.65 79.59-19.65L79.59-19.65Q78.74-19.65 77.94-18.55L77.94-18.55 77.59-18.75Q77.79-20.75 78.87-22.18 79.94-23.6 81.52-24.4 83.09-25.2 84.64-25.2L84.64-25.2Q86.54-25.2 87.94-23.98 89.34-22.75 89.34-20L89.34-20Q89.34-18.35 88.87-16.53 88.39-14.7 87.77-12.9 87.14-11.1 86.67-9.55 86.19-8 86.19-6.9L86.19-6.9Q86.19-5.95 86.57-5.55 86.94-5.15 87.39-5.15L87.39-5.15Q87.84-5.15 88.27-5.43 88.69-5.7 88.89-6.05L88.89-6.05 89.24-5.95Q89.24-4.1 88.27-2.73 87.29-1.35 85.84-0.58 84.39 0.2 82.84 0.2ZM102.84 0.35L102.84 0.35Q99.54 0.35 97.27-1.15 94.99-2.65 93.84-5.08 92.69-7.5 92.69-10.3L92.69-10.3Q92.69-12.95 93.72-15.6 94.74-18.25 96.74-20.48 98.74-22.7 101.62-24.03 104.49-25.35 108.24-25.35L108.24-25.35Q111.94-25.35 113.74-23.88 115.54-22.4 115.54-20.65L115.54-20.65Q115.54-18.8 113.69-17.25 111.84-15.7 108.29-15.7L108.29-15.7Q108.49-16.45 108.62-17.23 108.74-18 108.74-18.7L108.74-18.7Q108.74-19.75 108.29-20.48 107.84-21.2 106.69-21.2L106.69-21.2Q105.64-21.2 104.47-20.25 103.29-19.3 102.47-17.45 101.64-15.6 101.64-12.9L101.64-12.9Q101.64-10.25 102.52-8.6 103.39-6.95 104.79-6.23 106.19-5.5 107.74-5.5L107.74-5.5Q109.79-5.5 111.69-6.58 113.59-7.65 114.44-9.55L114.44-9.55 114.94-9.35Q114.94-6.75 113.77-4.93 112.59-3.1 110.74-1.93 108.89-0.75 106.79-0.2 104.69 0.35 102.84 0.35ZM128.39 0.35L128.39 0.35Q124.74 0.35 122.34-1.13 119.94-2.6 118.74-5.03 117.54-7.45 117.54-10.25L117.54-10.25Q117.54-12.9 118.56-15.58 119.59-18.25 121.56-20.45 123.54-22.65 126.36-24 129.19-25.35 132.74-25.35L132.74-25.35Q137.14-25.35 139.16-23.38 141.19-21.4 141.19-18.6L141.19-18.6Q141.19-16.2 139.91-14.18 138.64-12.15 136.54-10.93 134.44-9.7 131.94-9.7L131.94-9.7Q130.64-9.7 129.29-10.1 127.94-10.5 126.64-11.35L126.64-11.35Q126.89-8.25 128.44-6.85 129.99-5.45 132.14-5.45L132.14-5.45Q133.64-5.45 135.14-6.03 136.64-6.6 137.91-7.53 139.19-8.45 139.89-9.5L139.89-9.5 140.24-9.25Q140.24-6.65 139.16-4.83 138.09-3 136.34-1.85 134.59-0.7 132.51-0.18 130.44 0.35 128.39 0.35ZM129.54-13.15L129.54-13.15Q131.14-13.15 132.14-14.08 133.14-15 133.64-16.25 134.14-17.5 134.14-18.45L134.14-18.45Q134.14-19.6 133.49-20.38 132.84-21.15 131.69-21.15L131.69-21.15Q130.79-21.15 129.71-20.5 128.64-19.85 127.79-18.28 126.94-16.7 126.69-13.9L126.69-13.9Q128.29-13.15 129.54-13.15Z" opacity="1" transform="matrix(1,0,0,1,0,0)" fill="#1e55b3" class="undefined-tk-1"></path></svg></g></svg></g></svg></g></svg></g></svg></g><g></g></svg></g><defs></defs></svg><rect width="395.52" height="46.322251801228134" fill="none" stroke="none" visibility="hidden"></rect></g></svg></g></svg>